<svg width="64" height="62" viewBox="0 0 64 62" fill="none" xmlns="http://www.w3.org/2000/svg">
<path d="M18.6667 46.5C15.7334 46.5 13.36 48.825 13.36 51.6667C13.36 54.5084 15.7334 56.8334 18.6667 56.8334C21.6 56.8334 24 54.5084 24 51.6667C24 48.825 21.6 46.5 18.6667 46.5ZM2.66669 5.16669V10.3334H8.00002L17.6 29.9409L14 36.27C13.5734 36.9934 13.3334 37.8459 13.3334 38.75C13.3334 41.5917 15.7334 43.9167 18.6667 43.9167H50.6667V38.75H19.7867C19.4134 38.75 19.12 38.4659 19.12 38.1042L19.2 37.7942L21.6 33.5834H41.4667C43.4667 33.5834 45.2267 32.5242 46.1334 30.9225L55.68 14.1567C55.8934 13.795 56 13.3559 56 12.9167C56 11.4959 54.8 10.3334 53.3334 10.3334H13.8934L11.3867 5.16669H2.66669ZM45.3334 46.5C42.4 46.5 40.0267 48.825 40.0267 51.6667C40.0267 54.5084 42.4 56.8334 45.3334 56.8334C48.2667 56.8334 50.6667 54.5084 50.6667 51.6667C50.6667 48.825 48.2667 46.5 45.3334 46.5Z" fill="black"/>
</svg>
